<!-- Generator: Adobe Illustrator 23.0.0, SVG Export Plug-In  -->
<svg version="1.1" xmlns="http://www.w3.org/2000/svg" xmlns:xlink="http://www.w3.org/1999/xlink" x="0px" y="0px" width="63.79px"
	 height="63.79px" viewBox="0 0 63.79 63.79" style="enable-background:new 0 0 63.79 63.79;" xml:space="preserve">
<style type="text/css">
	.st0{fill:#FFFFFF;}
	.st1{fill-rule:evenodd;clip-rule:evenodd;fill:#DBEFE6;}
</style>
<defs>
</defs>
<g>
	<g>
		<g>
			<g>
				<path class="st0" d="M57.85,63.79H5.94C2.66,63.79,0,61.13,0,57.85V5.94C0,2.66,2.66,0,5.94,0h51.91c3.27,0,5.94,2.66,5.94,5.94
					v51.91C63.79,61.13,61.13,63.79,57.85,63.79z M5.94,1.36c-2.48,0-4.58,2.1-4.58,4.58v51.91c0,2.52,2.05,4.58,4.58,4.58h51.91
					c2.52,0,4.58-2.05,4.58-4.58V5.94c0-2.52-2.05-4.58-4.58-4.58H5.94z"/>
			</g>
			<g>
				<path class="st0" d="M4.94,58.24c0,0.61,0.39,1,0.94,1s0.94-0.33,0.94-1v-4.65l0,0l3.93,5.2c0.17,0.22,0.55,0.39,0.77,0.39
					c0.55,0,0.94-0.33,0.94-1v-6.97c0-0.61-0.39-1-0.94-1c-0.55,0-0.94,0.33-0.94,1v4.7l0,0l-3.93-5.26
					c-0.17-0.22-0.55-0.39-0.77-0.39c-0.55,0-0.94,0.33-0.94,1L4.94,58.24L4.94,58.24z"/>
			</g>
			<g>
				<path class="st1" d="M17.67,57.58c-1.55,0-2.32-1.33-2.32-2.88c0-1.49,0.77-2.88,2.32-2.88c1.55,0,2.32,1.33,2.32,2.88
					C20,56.25,19.22,57.58,17.67,57.58L17.67,57.58z M17.67,59.29c2.55,0,4.26-1.99,4.26-4.59c0-2.55-1.77-4.59-4.26-4.59
					c-2.55,0-4.26,1.99-4.26,4.59C13.41,57.3,15.13,59.29,17.67,59.29L17.67,59.29z"/>
			</g>
			<g>
				<path class="st0" d="M25.09,58.52c0.17,0.39,0.39,0.72,0.94,0.72s0.77-0.33,0.94-0.72l2.71-6.92c0.06-0.17,0.11-0.28,0.11-0.44
					c0-0.5-0.44-0.89-0.94-0.89c-0.44,0-0.66,0.28-0.83,0.61l-1.94,5.15l-1.94-5.15c-0.17-0.33-0.44-0.61-0.83-0.61
					c-0.5,0-0.94,0.39-0.94,0.89c0,0.17,0,0.28,0.11,0.44L25.09,58.52L25.09,58.52z"/>
			</g>
			<g>
				<path class="st1" d="M30.01,57.96c0,0.06-0.11,0.22-0.11,0.39c0,0.5,0.44,0.89,0.94,0.89s0.77-0.28,0.89-0.66l0.39-1.16h3.43
					l0.39,1.16c0.11,0.39,0.39,0.66,0.89,0.66c0.44,0,0.83-0.33,0.83-0.83c0-0.11,0-0.28-0.11-0.44l-2.44-6.75
					c-0.22-0.61-0.66-1.05-1.33-1.05c-0.61,0-1.11,0.44-1.33,1.05L30.01,57.96L30.01,57.96z M33.83,52.1L33.83,52.1l1.16,3.6h-2.32
					L33.83,52.1L33.83,52.1z"/>
			</g>
			<g>
				<path class="st0" d="M41.25,50.16c-1.66,0-3.1,1.11-3.1,2.82c0,2.88,4.15,1.99,4.15,3.49c0,0.61-0.44,1.05-1.27,1.05
					s-1.49-0.5-2.1-0.5c-0.5,0-0.83,0.39-0.83,0.89c0,1.16,2.05,1.38,3.04,1.38c1.72,0,3.15-1.11,3.15-2.88
					c0-3.21-4.15-2.38-4.15-3.65c0-0.5,0.5-0.83,1-0.83c0.72,0,1.16,0.39,1.66,0.39c0.5,0,0.83-0.44,0.83-0.94
					C43.68,50.44,41.97,50.16,41.25,50.16L41.25,50.16z"/>
			</g>
			<g>
				<path class="st1" d="M49.27,57.58c-1.55,0-2.32-1.33-2.32-2.88c0-1.49,0.77-2.88,2.32-2.88c1.55,0,2.32,1.33,2.32,2.88
					S50.82,57.58,49.27,57.58L49.27,57.58z M49.27,59.29c2.55,0,4.26-1.99,4.26-4.59c0-2.55-1.77-4.59-4.26-4.59
					c-2.55,0-4.26,1.99-4.26,4.59S46.73,59.29,49.27,59.29L49.27,59.29z"/>
			</g>
			<g>
				<path class="st0" d="M54.53,58.13c0,0.61,0.39,1,1,1h3.1c0.55,0,0.89-0.39,0.89-0.83c0-0.44-0.28-0.89-0.89-0.89h-2.21v-6.2
					c0-0.61-0.39-1-0.94-1c-0.55,0-0.94,0.33-0.94,1L54.53,58.13L54.53,58.13z"/>
			</g>
			<g>
				<path class="st0" d="M46.84,11.53c0-3.54,2.88-6.42,6.42-6.42s6.42,2.88,6.42,6.42s-2.88,6.42-6.42,6.42
					C49.72,18,46.84,15.13,46.84,11.53L46.84,11.53z"/>
			</g>
			<g>
				<path class="st0" d="M46.84,25.53c0-3.54,2.88-6.42,6.42-6.42s6.42,2.88,6.42,6.42s-2.88,6.42-6.42,6.42
					C49.72,31.95,46.84,29.07,46.84,25.53L46.84,25.53z"/>
			</g>
			<g>
				<path class="st0" d="M5,41.97C5,45.79,8.98,48,12.36,48s6.92-2.66,6.92-6.03V31.51h0.11l10.13,11.57
					c3.15,4.04,5.26,4.93,7.8,4.93c3.76,0,6.25-2.6,6.25-5.98V11.42c0-3.38-2.82-6.36-7.47-6.36c-3.93,0-6.64,3.21-6.64,6.59v10.57
					h-0.11L17.78,8.76C14.57,4.72,13.19,5,10.64,5C7.93,5,5,7.99,5,10.92V41.97L5,41.97z"/>
			</g>
		</g>
	</g>
</g>
</svg>
